<?xml version="1.0" encoding="UTF-8" standalone="no"?>
<svg width="828px" height="828px" viewBox="0 0 828 828" version="1.1" xmlns="http://www.w3.org/2000/svg" xmlns:xlink="http://www.w3.org/1999/xlink" xmlns:sketch="http://www.bohemiancoding.com/sketch/ns">
    <!-- Generator: Sketch 3.3.1 (12002) - http://www.bohemiancoding.com/sketch -->
    <title>Synrc Neo</title>
    <desc>Created with Sketch.</desc>
    <defs></defs>
    <g id="Page-1" stroke="none" stroke-width="1" fill="none" fill-rule="evenodd" sketch:type="MSPage">
        <g id="Rectangle-1-+-Synrc-Neo" sketch:type="MSLayerGroup" transform="translate(-90.000000, -73.000000)">
            <g id="Synrc-Neo" transform="translate(78.493590, 69.666230)" sketch:type="MSShapeGroup">
                <g id="path" transform="translate(7.753762, 0.000000)">
                    <g id="path0_fill-link" transform="translate(5.169513, 5.170382)" fill="#4990E2">
                        <path d="M412.241752,824.483504 C639.915506,824.483504 824.483504,639.915506 824.483504,412.241752 C824.483504,184.566965 639.915506,0 412.241752,0 C184.566965,0 0,184.566965 0,412.241752 C0,639.915506 184.566965,824.483504 412.241752,824.483504 L412.241752,824.483504 Z" id="path0_fill"></path>
                    </g>
                    <g id="path1_stroke-link" transform="translate(417.411172, 417.412040) rotate(0.268599) translate(-417.411172, -417.412040) translate(2.584925, 2.585794)" fill="#979797">
                        <path d="M414.82634,828.360385 C643.216025,828.360385 828.360386,643.216024 828.360386,414.826339 L825.775798,414.826339 C825.775798,641.786747 641.786748,825.775798 414.82634,825.775798 L414.82634,828.360385 L414.82634,828.360385 Z M828.360386,414.826339 C828.360386,186.437689 643.216025,1.29229345 414.82634,1.29229345 L414.82634,3.87688124 C641.786748,3.87688124 825.775798,187.865157 825.775798,414.826339 L828.360386,414.826339 L828.360386,414.826339 Z M414.82634,1.29229345 C186.43769,1.29229345 1.29229433,186.437689 1.29229433,414.826339 L3.87688212,414.826339 C3.87688212,187.865157 187.865158,3.87688124 414.82634,3.87688124 L414.82634,1.29229345 L414.82634,1.29229345 Z M1.29229433,414.826339 C1.29229433,643.216024 186.43769,828.360385 414.82634,828.360385 L414.82634,825.775798 C187.865158,825.775798 3.87688212,641.786747 3.87688212,414.826339 L1.29229433,414.826339 L1.29229433,414.826339 Z" id="path1_stroke"></path>
                    </g>
                </g>
                <g id="path" transform="translate(0.000000, 31.015046)">
                    <g id="path2_fill-link" transform="translate(373.211629, 415.748546) rotate(-21.731401) translate(-373.211629, -415.748546) translate(108.291381, 77.167546)" fill="#FFFFFF">
                        <path d="M368.657848,299.168621 C420.349604,359.906434 574.926046,416.635551 513.681654,570.29188 C476.734971,662.988121 243.305599,759.225247 77.8919806,553.750518 C-61.2079495,380.963071 17.4668769,159.867868 112.783916,76.8940713 C292.412508,-79.4734899 491.425768,51.0481934 491.425768,51.0481934 C363.488673,44.5867239 270.77434,184.154464 368.657848,299.168621 L368.657848,299.168621 Z" id="path2_fill"></path>
                    </g>
                    <g id="path3_stroke-link" transform="translate(372.733150, 414.548096) rotate(-21.731401) translate(-372.733150, -414.548096) translate(107.812902, 74.674802)" fill="#979797">
                        <path d="M368.657848,301.753209 L369.642576,300.915802 L368.657848,301.753209 L368.657848,301.753209 Z M513.681654,572.876468 L514.880902,573.354616 L513.681654,572.876468 L513.681654,572.876468 Z M77.8919806,556.335106 L78.8986775,555.523545 L77.8919806,556.335106 L77.8919806,556.335106 Z M112.783916,79.478659 L113.632436,80.4533071 L112.783916,79.478659 L112.783916,79.478659 Z M491.425768,53.6327812 L491.361153,54.9232659 L496.116795,55.1636325 L492.133945,52.552165 L491.425768,53.6327812 L491.425768,53.6327812 Z M367.67312,302.590615 C380.689104,317.873283 400.140712,332.892322 420.941475,349.14938 C441.742237,365.409021 463.915416,382.924773 482.565801,403.343016 C501.22394,423.750921 516.253318,446.86489 522.872448,474.532902 C529.486408,502.113039 527.708211,534.195527 512.47982,572.398319 L514.880902,573.354616 C530.277292,534.730536 532.143364,502.100116 525.384667,473.930693 C518.628555,445.846562 503.268349,422.171738 484.475812,401.59842 C465.67552,381.032855 443.339512,363.377535 422.533581,347.112724 C401.727649,330.850498 382.47247,316.002041 369.642576,300.915802 L367.67312,302.590615 L367.67312,302.590615 Z M512.47982,572.398319 C494.242969,618.153276 427.180669,665.208282 343.809621,675.135683 C260.590547,685.047578 161.321182,657.909406 78.8986775,555.523545 L76.8855421,557.146666 C159.876656,660.235535 260.02814,687.717457 344.114603,677.702179 C428.046506,667.707578 496.171071,620.2959 514.880902,573.354616 L512.47982,572.398319 L512.47982,572.398319 Z M78.8986775,555.523545 C9.61453734,469.461941 -5.43960099,371.376835 8.70714026,284.433886 C22.860679,197.449842 66.2287698,121.718319 113.632436,80.4533071 L111.935396,78.504011 C64.0220487,120.212796 20.394181,196.515256 6.15610042,284.017767 C-8.08882932,371.565509 7.06964882,470.420823 76.8855421,557.146666 L78.8986775,555.523545 L78.8986775,555.523545 Z M113.632436,80.4533071 C203.082693,2.58666082 297.315472,-3.84297189 369.234211,9.18945019 C405.224596,15.7059455 435.565072,27.0824222 456.986136,36.8577726 C467.683745,41.7379913 476.112085,46.2002821 481.888639,49.4555704 C484.773039,51.0797254 486.977692,52.3937298 488.474169,53.30764 C489.21853,53.7627859 489.779386,54.1142899 490.156735,54.3546565 C490.34541,54.473806 490.484978,54.5634912 490.580608,54.624746 C490.62713,54.6549856 490.66073,54.6769546 490.683991,54.6922037 C490.696914,54.699699 490.704668,54.7051266 490.709837,54.7087451 C490.712422,54.7105543 490.715006,54.7115881 490.715006,54.7126219 C490.717591,54.7131389 490.717591,54.7133973 491.425768,53.6327812 C492.133945,52.552165 492.133945,52.5513896 492.131361,52.5498389 C492.128776,52.5488051 492.126191,52.5469958 492.123607,52.5449282 C492.118438,52.5405344 492.108099,52.5340729 492.095176,52.5258022 C492.06933,52.5095193 492.030562,52.4847073 491.981454,52.4526584 C491.88324,52.3895944 491.735919,52.2944816 491.542075,52.1717137 C491.156971,51.9274701 490.578023,51.5651109 489.820739,51.1024697 C488.313924,50.1808057 486.067918,48.8432815 483.157672,47.2038775 C477.350103,43.9320478 468.826132,39.4190991 458.05874,34.5063146 C436.554969,24.6952194 405.912097,13.2142737 369.696852,6.64629334 C297.20175,-6.49021008 202.11399,0.00312218205 111.935396,78.504011 L113.632436,80.4533071 L113.632436,80.4533071 Z M491.490383,52.342038 C427.030763,49.0864913 371.40268,82.6210009 344.228324,131.511839 C317.025538,180.454885 318.3902,244.683184 367.67312,302.590615 L369.642576,300.915802 C321.041987,243.809077 319.822062,180.746169 346.487254,132.767432 C373.186046,84.7359691 427.886262,51.7176016 491.361153,54.9232659 L491.490383,52.342038 L491.490383,52.342038 Z" id="path3_stroke"></path>
                    </g>
                </g>
                <g id="path" transform="translate(444.548999, 95.629727)">
                    <g id="path4_fill-link" transform="translate(184.682800, 230.988758) rotate(-21.731401) translate(-184.682800, -230.988758) translate(68.376350, 33.267793)" fill="#FFFFFF">
                        <path d="M178.133667,49.3304763 C90.2576824,-59.2224692 -63.5252909,28.653774 28.2275755,146.252518 C65.7040984,194.285532 178.133667,265.142523 162.62614,394.371912 C308.612705,188.813184 178.133667,49.3304763 178.133667,49.3304763 L178.133667,49.3304763 Z" id="path4_fill"></path>
                    </g>
                    <g id="path5_stroke-link" transform="translate(184.204321, 229.788308) rotate(-21.731401) translate(-184.204321, -229.788308) translate(65.313283, 30.775049)" fill="#979797">
                        <path d="M180.718255,51.9150641 L179.713884,52.7281754 L179.74309,52.7641012 L179.774622,52.7977009 L180.718255,51.9150641 L180.718255,51.9150641 Z M30.8121633,148.837106 L31.8310078,148.042087 L30.8121633,148.837106 L30.8121633,148.837106 Z M165.210728,396.9565 L163.92748,396.804009 L166.264206,397.70603 L165.210728,396.9565 L165.210728,396.9565 Z M181.722884,51.1019528 C137.421757,-3.62284255 76.3045268,-9.00617707 37.7326556,14.4652142 C18.4491753,26.1993719 4.82797122,45.1468041 1.88683179,68.6554392 C-1.0536589,92.1586467 6.70137091,120.035235 29.7933188,149.631867 L31.8310078,148.042087 C9.0464191,118.839346 1.61696464,91.6321662 4.45142521,68.9761866 C7.28522929,46.3256346 20.398368,28.0387714 39.0761243,16.67315 C76.4265193,-6.0549655 136.138768,-1.09997472 179.713884,52.7281754 L181.722884,51.1019528 L181.722884,51.1019528 Z M29.7933188,149.631867 C39.2226704,161.71223 53.3337444,175.206363 68.8937382,190.615159 C84.4555413,206.025505 101.479963,223.362144 116.858518,243.239434 C147.586683,282.950333 171.627226,332.639033 163.92748,396.804009 L166.493718,397.111575 C174.301757,332.047162 149.88128,281.691638 118.90241,241.657924 C103.427449,221.663036 86.2869802,204.20182 70.7122542,188.778809 C55.1362359,173.353989 41.1396592,159.978489 31.8310078,148.042087 L29.7933188,149.631867 L29.7933188,149.631867 Z M166.264206,397.70603 C239.470329,294.6275 243.426041,207.985915 228.96734,147.052965 C221.740057,116.631075 209.908589,92.586396 199.927687,76.2474074 C194.9247,68.0604671 190.355666,61.7491622 187.059283,57.5158659 C185.405146,55.3918516 184.054958,53.7692474 183.128642,52.6899235 C182.662382,52.1469017 182.295629,51.7320753 182.050093,51.4583675 C181.925774,51.3198336 181.828852,51.2133485 181.765013,51.1438231 C181.732447,51.1081558 181.70686,51.0802423 181.690318,51.0624086 C181.681531,51.0531041 181.674552,51.0456088 181.670159,51.0409565 C181.667833,51.0383719 181.665765,51.0363043 181.664731,51.035012 C181.66318,51.0332028 181.662146,51.0321689 180.718255,51.9150641 C179.774622,52.7977009 179.774622,52.7977009 179.77488,52.7982178 C179.775914,52.7989932 179.77669,52.800027 179.77824,52.8018362 C179.781859,52.8057131 179.78677,52.8108823 179.793748,52.8183776 C179.808739,52.8346605 179.830191,52.8576633 179.859655,52.8899706 C179.920393,52.9561361 180.008269,53.0527997 180.126384,53.1843552 C180.365717,53.4510846 180.713603,53.8447174 181.167456,54.3732656 C182.081108,55.4375988 183.391753,57.0126466 185.020301,59.1038366 C188.28903,63.3014656 192.773548,69.4931041 197.722,77.594753 C207.643974,93.8324258 219.30796,117.505958 226.452536,147.649747 C240.737036,207.848156 236.938725,293.728064 164.156992,396.209554 L166.264206,397.70603 L166.264206,397.70603 Z" id="path5_stroke"></path>
                    </g>
                </g>
                <g id="ellipse" transform="translate(393.857255, 448.133586)">
                    <g id="path6_fill-link" transform="translate(113.299609, 113.299764) rotate(-21.731401) translate(-113.299609, -113.299764) translate(29.300505, 29.300661)" fill="#4990E2">
                        <path d="M83.9991031,167.998206 C130.390645,167.998206 167.998206,130.390645 167.998206,83.9991031 C167.998206,37.6075615 130.390645,0 83.9991031,0 C37.6075615,0 0,37.6075615 0,83.9991031 C0,130.390645 37.6075615,167.998206 83.9991031,167.998206 L83.9991031,167.998206 Z" id="path6_fill"></path>
                    </g>
                    <g id="path7_stroke-link" transform="translate(113.299609, 113.299764) rotate(-21.731401) translate(-113.299609, -113.299764) translate(26.715918, 26.716073)" fill="#979797">
                        <path d="M169.2905,86.5836909 C169.2905,132.261369 132.261369,169.2905 86.5836909,169.2905 L86.5836909,171.875088 C133.688837,171.875088 171.875088,133.688837 171.875088,86.5836909 L169.2905,86.5836909 L169.2905,86.5836909 Z M86.5836909,169.2905 C40.9060124,169.2905 3.87688168,132.261369 3.87688168,86.5836909 L1.29229389,86.5836909 C1.29229389,133.688837 39.4785446,171.875088 86.5836909,171.875088 L86.5836909,169.2905 L86.5836909,169.2905 Z M3.87688168,86.5836909 C3.87688168,40.9060124 40.9060124,3.87688168 86.5836909,3.87688168 L86.5836909,1.29229389 C39.4785446,1.29229389 1.29229389,39.4785446 1.29229389,86.5836909 L3.87688168,86.5836909 L3.87688168,86.5836909 Z M86.5836909,3.87688168 C132.261369,3.87688168 169.2905,40.9060124 169.2905,86.5836909 L171.875088,86.5836909 C171.875088,39.4785446 133.688837,1.29229389 86.5836909,1.29229389 L86.5836909,3.87688168 L86.5836909,3.87688168 Z" id="path7_stroke"></path>
                    </g>
                </g>
            </g>
        </g>
    </g>
</svg>