<?xml version="1.0" encoding="UTF-8" standalone="no"?>
<svg width="825px" height="826px" viewBox="0 0 825 826" version="1.1" xmlns="http://www.w3.org/2000/svg" xmlns:xlink="http://www.w3.org/1999/xlink" xmlns:sketch="http://www.bohemiancoding.com/sketch/ns">
    <!-- Generator: Sketch 3.3.1 (12002) - http://www.bohemiancoding.com/sketch -->
    <title>Synrc Neo Mono</title>
    <desc>Created with Sketch.</desc>
    <defs></defs>
    <g id="Page-1" stroke="none" stroke-width="1" fill="none" fill-rule="evenodd" sketch:type="MSPage">
        <g id="Synrc-Neo-Mono" sketch:type="MSLayerGroup" transform="translate(-91.000000, -74.000000)">
            <ellipse id="Oval-1" stroke="#979797" fill="#FFFFFF" sketch:type="MSShapeGroup" cx="504" cy="487" rx="403" ry="389"></ellipse>
            <path d="M503.658617,899.320116 C731.33237,899.320116 915.900369,714.752118 915.900369,487.078364 C915.900369,259.403577 731.33237,74.836612 503.658617,74.836612 C275.983829,74.836612 91.4168646,259.403577 91.4168646,487.078364 C91.4168646,714.752118 275.983829,899.320116 503.658617,899.320116 Z M625.210601,402.931466 C662.687124,450.964479 809.542872,517.247009 775.116694,678.497925 C915.156555,450.63263 775.116701,301.586234 775.116699,301.586236 C685.700748,211.838025 533.457734,285.332722 625.210601,402.931466 Z M685.456532,720.233658 C648.50985,812.929899 434.406446,906.349786 262.801466,709.544567 C115.888813,541.05775 174.007336,319.79592 297.851522,226.097698 C501.57892,71.9613168 676.493375,200.25182 676.493375,200.25182 C522.539967,157.499284 451.241661,337.498394 568.42736,447.182324 C629.984294,504.798623 746.700924,566.57733 685.456532,720.233658 Z M534.263915,735.049963 C580.655457,735.049963 618.263018,697.442401 618.263018,651.05086 C618.263018,604.659318 580.655457,567.051757 534.263915,567.051757 C487.872374,567.051757 450.264812,604.659318 450.264812,651.05086 C450.264812,697.442401 487.872374,735.049963 534.263915,735.049963 Z" fill="#4990E2" sketch:type="MSShapeGroup"></path>
        </g>
    </g>
</svg>